<svg width="118" height="81" viewBox="0 0 118 81" fill="none" xmlns="http://www.w3.org/2000/svg">
<path d="M43.5856 0.170654H65.3784L22.5135 42.5302H0L43.5856 0.170654Z" fill="white"/>
<path d="M95.1438 21.867H116.937L96.2069 42.0136H74.4141L95.1438 21.867Z" fill="white"/>
<rect x="0.53125" y="41.4971" width="64.8468" height="18.5969" fill="white"/>
<path d="M65.3779 42.5302L65.3779 80.7571L43.0536 80.7571L43.0536 42.5302L65.3779 42.5302Z" fill="white"/>
<path d="M96.208 41.4971L96.208 63.1934L74.4152 63.1934L74.4152 42.0137L96.208 41.4971Z" fill="white"/>
<path d="M74.4141 0.170654H96.2069L85.0447 11.5354L74.4141 21.867V0.170654Z" fill="white"/>
<path d="M118 63.1934L96.2072 63.1934L107.369 51.8286L118 41.497L118 63.1934Z" fill="white"/>
<path d="M95.1436 0.170654H117.468V21.867H95.1436V11.0188V0.170654Z" fill="white"/>
</svg>
